<?xml version="1.0" encoding="UTF-8" standalone="no" ?>
<!DOCTYPE svg PUBLIC "-//W3C//DTD SVG 1.1//EN" "http://www.w3.org/Graphics/SVG/1.1/DTD/svg11.dtd">
<svg xmlns="http://www.w3.org/2000/svg" xmlns:xlink="http://www.w3.org/1999/xlink" version="1.1" width="160.91" height="142.16" xml:space="preserve">
<desc>Created with Fabric.js 1.6.0-rc.1</desc>
<defs></defs>
<g style="stroke: none; stroke-width: 1; stroke-dasharray: none; stroke-linecap: butt; stroke-linejoin: miter; stroke-miterlimit: 10; fill: none; fill-rule: nonzero; opacity: 1;" transform="translate(19.95000000000004 9.999999999999993) scale(0.24 0.24)" >
  <circle cx="254" cy="254" r="254" style="stroke: none; stroke-width: 1; stroke-dasharray: none; stroke-linecap: butt; stroke-linejoin: miter; stroke-miterlimit: 10; fill: #f0c8b1; fill-rule: nonzero; opacity: 1;" transform="  matrix(1 0 0 1 0 0) "/>
  <path d="M 179.6 138.8 c 8.4 -2.4 17.2 2.4 20 10.4 l 16.4 50 c 0.4 0.8 1.2 1.6 2.4 1.2 c 0.8 -0.4 1.6 -1.2 1.2 -2.4 l -26.8 -80 c -2.4 -8 0.4 -16.8 8 -20.8 c 9.6 -4.8 20.4 0 23.6 9.6 l 24 72.8 c 0.4 0.8 1.2 1.6 2.4 1.2 c 0.8 -0.4 1.6 -1.2 1.2 -2.4 l -31.2 -95.2 c -2.8 -9.2 2 -18.8 10.8 -22 h 0.4 c 0.4 0 1.2 -0.4 1.6 -0.4 c 8.4 -1.6 16.4 4 19.2 12.4 l 32.4 99.6 c 0.4 0.8 1.2 1.6 2.4 1.2 c 0.8 -0.4 1.6 -1.2 1.2 -2.4 L 260 81.2 c -3.2 -9.6 2.4 -19.6 12 -22.4 c 8.8 -2.4 18.4 2.4 21.2 11.2 L 328 172.8 c 2 -20 7.6 -38.4 18.4 -50 c 5.6 -6 16.4 -2.8 20.8 4 c 2 2.8 3.6 7.6 2.4 13.2 c 0 0 -12.4 21.6 2 56.8 c 14.4 34.8 -15.2 89.2 -15.2 89.2 c -9.6 21.6 18.8 101.2 18.8 101.2 l -86.4 24.4 c -13.2 -37.2 -45.6 -86.8 -45.6 -86.8 l -13.6 -21.6 c -15.6 -24.8 -28.4 -51.6 -38 -79.2 l -22.8 -65.2 C 165.6 150.8 170.4 141.2 179.6 138.8 z" style="stroke: none; stroke-width: 1; stroke-dasharray: none; stroke-linecap: butt; stroke-linejoin: miter; stroke-miterlimit: 10; fill: #e29d81; fill-rule: nonzero; opacity: 1;" transform=" matrix(1 0 0 1 0 0) " stroke-linecap="round" />
  <path d="M 292 505.2 c 50.8 -7.6 96.4 -30 132.4 -62.8 L 385.2 338 l -134.8 56.4 L 292 505.2 z" style="stroke: none; stroke-width: 1; stroke-dasharray: none; stroke-linecap: butt; stroke-linejoin: miter; stroke-miterlimit: 10; fill: #9fb7c7; fill-rule: nonzero; opacity: 1;" transform=" matrix(1 0 0 1 0 0) " stroke-linecap="round" />
  <path d="M 309.2 135.6 c -8.4 -2 -17.2 2.8 -19.6 11.2 l -15.2 50.4 c -0.4 0.8 -1.2 1.6 -2.4 1.2 c -0.8 -0.4 -1.6 -1.2 -1.2 -2.4 l 24.4 -80.8 c 2.4 -8 -0.8 -16.8 -8.4 -20.4 c -9.6 -4.4 -20.4 0.4 -23.2 10 L 241.2 178 c -0.4 0.8 -1.2 1.6 -2.4 1.2 c -0.8 -0.4 -1.2 -1.2 -0.8 -2 l 28.8 -95.6 c 2.8 -9.2 -2.4 -18.8 -11.6 -21.6 h -0.4 c -0.4 0 -1.2 -0.4 -1.6 -0.4 c -8.4 -1.2 -16.4 4.8 -18.8 12.8 l -30 100.4 c -0.4 0.8 -1.2 1.6 -2.4 1.2 c -0.8 -0.4 -1.6 -1.2 -1.2 -2.4 l 26.8 -91.2 c 2.8 -9.6 -2.8 -19.6 -12.4 -22 C 206 56 196.8 61.2 194 70 l -32 104 c -2.4 -20 -8.4 -38.4 -19.6 -49.6 c -5.6 -6 -16.4 -2 -20.8 4.8 c -2 3.2 -3.2 8 -2 13.2 c 0 0 12.8 21.2 -0.8 56.8 c -13.6 35.2 17.6 88.8 17.6 88.8 c 10 21.2 -16 102 -16 102 l 86.8 22.4 c 12.4 -37.6 43.2 -88 43.2 -88 l 13.2 -22 c 15.2 -25.2 27.2 -52 36 -80 l 20.8 -65.6 C 323.6 147.2 318.4 138 309.2 135.6 z" style="stroke: none; stroke-width: 1; stroke-dasharray: none; stroke-linecap: butt; stroke-linejoin: miter; stroke-miterlimit: 10; fill: #d18661; fill-rule: nonzero; opacity: 1;" transform=" matrix(1 0 0 1 0 0) " stroke-linecap="round" />
  <path d="M 75.6 434.8 c 35.2 34.8 80.4 59.2 130.8 68.8 l 38.4 -110.4 L 108.4 340 L 75.6 434.8 z" style="stroke: none; stroke-width: 1; stroke-dasharray: none; stroke-linecap: butt; stroke-linejoin: miter; stroke-miterlimit: 10; fill: #FF7058; fill-rule: nonzero; opacity: 1;" transform=" matrix(1 0 0 1 0 0) " stroke-linecap="round" />
</g>
<g style="stroke: none; stroke-width: 1; stroke-dasharray: none; stroke-linecap: butt; stroke-linejoin: miter; stroke-miterlimit: 10; fill: none; fill-rule: nonzero; opacity: 1;" transform="translate(10 56.30000000000001) scale(2.31 0.45)" >
  <rect x="0" y="0" rx="0" ry="0" width="60" height="60" style="stroke: none; stroke-width: 1; stroke-dasharray: none; stroke-linecap: butt; stroke-linejoin: miter; stroke-miterlimit: 10; fill: #e6caac; fill-rule: nonzero; opacity: 1;" transform=" matrix(1 0 0 1 0 0) "/>
</g>
  <g transform="translate(79.63 72.9) scale(0.65 0.67)">
   <text font-family="zwodrei - free" font-size="40" font-weight="normal" style="stroke: none; stroke-width: 1; stroke-dasharray: none; stroke-linecap: butt; stroke-linejoin: miter; stroke-miterlimit: 10; fill: #5c485c; fill-rule: nonzero; opacity: 1;" ><tspan x="-105.68" y="8.98" style="stroke: none; stroke-width: 0; stroke-dasharray: none; stroke-linecap: butt; stroke-linejoin: miter; stroke-miterlimit: 4; fill: #5c485c; fill-rule: ; opacity: 1;">Q</tspan><tspan x="-77.64" y="8.98" style="stroke: none; stroke-width: 0; stroke-dasharray: none; stroke-linecap: butt; stroke-linejoin: miter; stroke-miterlimit: 4; fill: #5c485c; fill-rule: ; opacity: 1;">U</tspan><tspan x="-51.08" y="8.98" style="stroke: none; stroke-width: 0; stroke-dasharray: none; stroke-linecap: butt; stroke-linejoin: miter; stroke-miterlimit: 4; fill: #5c485c; fill-rule: ; opacity: 1;">I</tspan><tspan x="-39.48" y="8.98" style="stroke: none; stroke-width: 0; stroke-dasharray: none; stroke-linecap: butt; stroke-linejoin: miter; stroke-miterlimit: 4; fill: #5c485c; fill-rule: ; opacity: 1;">C</tspan><tspan x="-16.4" y="8.98" style="stroke: none; stroke-width: 0; stroke-dasharray: none; stroke-linecap: butt; stroke-linejoin: miter; stroke-miterlimit: 4; fill: #5c485c; fill-rule: ; opacity: 1;">K</tspan><tspan x="8.68" y="8.98" style="stroke: none; stroke-width: 0; stroke-dasharray: none; stroke-linecap: butt; stroke-linejoin: miter; stroke-miterlimit: 4; fill: #5c485c; fill-rule: ; opacity: 1;">D</tspan><tspan x="36.8" y="8.98" style="stroke: none; stroke-width: 0; stroke-dasharray: none; stroke-linecap: butt; stroke-linejoin: miter; stroke-miterlimit: 4; fill: #5c485c; fill-rule: ; opacity: 1;">E</tspan><tspan x="57.96" y="8.98" style="stroke: none; stroke-width: 0; stroke-dasharray: none; stroke-linecap: butt; stroke-linejoin: miter; stroke-miterlimit: 4; fill: #5c485c; fill-rule: ; opacity: 1;">A</tspan><tspan x="84.32" y="8.98" style="stroke: none; stroke-width: 0; stroke-dasharray: none; stroke-linecap: butt; stroke-linejoin: miter; stroke-miterlimit: 4; fill: #5c485c; fill-rule: ; opacity: 1;">L</tspan></text>
 </g>
</svg>